<svg xmlns="http://www.w3.org/2000/svg" width="512" height="512" viewBox="0 0 512 512" role="img" aria-label="Corbits logo">
  <rect width="512" height="512" rx="0" fill="#F3E3CC"/>
  <!-- Minimal mountain mark inspired by provided raster -->
  <path
    d="M78 326
       C110 300, 132 274, 160 258
       C182 246, 198 252, 214 280
       C230 309, 246 292, 268 262
       C296 224, 322 198, 350 184
       C366 176, 382 178, 396 196
       C416 222, 438 268, 460 330
       L428 330
       C412 278, 392 240, 376 218
       C370 210, 364 208, 356 212
       C332 224, 306 250, 276 292
       C248 330, 222 346, 198 328
       C188 320, 180 308, 172 292
       C164 276, 156 272, 144 278
       C122 290, 102 310, 84 330
       Z"
    fill="#D97A1F"
  />
</svg>
